<svg width="261" height="49" viewBox="0 0 261 49" fill="none" xmlns="http://www.w3.org/2000/svg">
<path d="M8.83069 25.8892V38.2439H0.0194092V1.83004H14.6045C17.3993 1.83004 19.8679 2.3469 22.01 3.38063C24.1688 4.39767 25.834 5.85656 27.0055 7.75728C28.1938 9.64134 28.7878 11.7838 28.7878 14.1847C28.7878 17.7361 27.5077 20.5788 24.947 22.713C22.4033 24.8305 18.9054 25.8892 14.4538 25.8892H8.83069ZM8.83069 19.1115H14.6045C16.3115 19.1115 17.6085 18.6864 18.4955 17.8362C19.3992 16.9858 19.8511 15.7853 19.8511 14.2348C19.8511 12.5341 19.3908 11.1753 18.4703 10.1582C17.5499 9.14115 16.2948 8.62429 14.7049 8.60761H8.83069V19.1115ZM42.0424 38.2439H33.5574V11.1836H42.0424V38.2439ZM33.0555 4.20594C33.0555 3.00548 33.4906 2.02177 34.3608 1.25481C35.2311 0.487853 36.3607 0.104374 37.7497 0.104374C39.1389 0.104374 40.2685 0.487853 41.1388 1.25481C42.009 2.02177 42.4441 3.00548 42.4441 4.20594C42.4441 5.40639 42.009 6.3901 41.1388 7.15706C40.2685 7.92402 39.1389 8.3075 37.7497 8.3075C36.3607 8.3075 35.2311 7.92402 34.3608 7.15706C33.4906 6.3901 33.0555 5.40639 33.0555 4.20594ZM58.7613 32.2417C59.9495 32.2417 60.8699 31.9248 61.5226 31.2912C62.1754 30.6411 62.4933 29.7406 62.4765 28.5902H70.4092C70.4092 31.5581 69.3381 33.9923 67.1959 35.8929C65.0706 37.7937 62.326 38.7441 58.9622 38.7441C55.0126 38.7441 51.8998 37.5103 49.6236 35.0427C47.3476 32.5751 46.2097 29.1571 46.2097 24.7887V24.4387C46.2097 21.7043 46.7116 19.2951 47.7159 17.211C48.7367 15.1101 50.2011 13.5011 52.1088 12.3841C54.0167 11.2503 56.2761 10.6834 58.8868 10.6834C62.4181 10.6834 65.2212 11.6588 67.2964 13.6095C69.3717 15.5603 70.4092 18.2029 70.4092 21.5375H62.4765C62.4765 20.137 62.1334 19.0615 61.4474 18.3113C60.7612 17.561 59.8408 17.1859 58.6859 17.1859C56.4936 17.1859 55.2134 18.578 54.8451 21.3625C54.7281 22.2462 54.6695 23.4633 54.6695 25.0139C54.6695 27.7316 54.9958 29.6156 55.6485 30.666C56.3011 31.7165 57.3388 32.2417 58.7613 32.2417ZM104.926 38.2439H96.1652V23.0382H83.1868V38.2439H74.3756V1.83004H83.1868V16.2855H96.1652V1.83004H104.926V38.2439ZM125.436 38.2439C125.134 37.6936 124.867 36.8851 124.633 35.818C123.076 37.7688 120.9 38.7441 118.106 38.7441C115.545 38.7441 113.369 37.9772 111.579 36.4432C109.788 34.8926 108.893 32.9502 108.893 30.616C108.893 27.6816 109.981 25.464 112.156 23.9634C114.332 22.4628 117.495 21.7126 121.645 21.7126H124.256V20.287C124.256 17.8027 123.177 16.5606 121.018 16.5606C119.009 16.5606 118.005 17.5444 118.005 19.5117H109.545C109.545 16.8941 110.658 14.7683 112.884 13.1343C115.127 11.5004 117.98 10.6834 121.444 10.6834C124.909 10.6834 127.645 11.5254 129.653 13.2094C131.661 14.8933 132.691 17.2026 132.741 20.137V32.1165C132.774 34.6008 133.159 36.5016 133.896 37.8188V38.2439H125.436ZM120.139 32.7417C121.193 32.7417 122.064 32.5167 122.75 32.0665C123.453 31.6164 123.955 31.1078 124.256 30.541V26.2143H121.796C118.85 26.2143 117.378 27.5315 117.378 30.1659C117.378 30.9328 117.637 31.5581 118.156 32.0416C118.675 32.5083 119.336 32.7417 120.139 32.7417ZM145.217 11.1836L145.493 14.3598C147.368 11.9089 149.954 10.6834 153.25 10.6834C156.079 10.6834 158.187 11.5254 159.576 13.2094C160.982 14.8933 161.71 17.4276 161.76 20.8122V38.2439H153.275V21.1624C153.275 19.7951 152.999 18.7948 152.447 18.1612C151.895 17.5109 150.891 17.1859 149.435 17.1859C147.778 17.1859 146.548 17.8362 145.744 19.1366V38.2439H137.285V11.1836H145.217ZM165.476 24.5137C165.476 21.7792 165.928 19.3617 166.831 17.261C167.735 15.1601 169.032 13.5428 170.722 12.4091C172.413 11.2586 174.378 10.6834 176.621 10.6834C179.449 10.6834 181.66 11.6338 183.248 13.5345L183.55 11.1836H191.231V37.2185C191.231 39.6028 190.671 41.6702 189.55 43.4208C188.444 45.1883 186.839 46.5387 184.731 47.4725C182.621 48.4228 180.177 48.8979 177.399 48.8979C175.408 48.8979 173.475 48.5228 171.6 47.7726C169.743 47.0223 168.321 46.0469 167.333 44.8464L170.873 39.8945C172.447 41.7453 174.522 42.6706 177.098 42.6706C180.847 42.6706 182.722 40.7532 182.722 36.9183V36.0681C181.098 37.8521 179.048 38.7441 176.572 38.7441C173.257 38.7441 170.58 37.4853 168.538 34.9677C166.497 32.4334 165.476 29.0488 165.476 24.8138V24.5137ZM173.96 25.0388C173.96 27.2565 174.378 29.0153 175.216 30.3158C176.052 31.5997 177.225 32.2417 178.731 32.2417C180.554 32.2417 181.884 31.633 182.722 30.4159V19.0366C181.901 17.8027 180.589 17.1859 178.781 17.1859C177.274 17.1859 176.094 17.8611 175.24 19.2116C174.387 20.5455 173.96 22.4879 173.96 25.0388Z" fill="black"/>
<path d="M217.189 31.4413H205.114L203.006 38.2439H193.591L206.997 1.83004H215.281L228.787 38.2439H219.322L217.189 31.4413ZM207.223 24.6637H215.079L211.139 12.0339L207.223 24.6637ZM245.054 25.389H240.285V38.2439H231.473V1.83004H245.856C250.192 1.83004 253.58 2.78873 256.023 4.70614C258.467 6.62352 259.689 9.3329 259.689 12.8342C259.689 15.3685 259.17 17.4693 258.133 19.1366C257.112 20.804 255.504 22.1545 253.312 23.1881L260.944 37.8688V38.2439H251.504L245.054 25.389ZM240.285 18.6115H245.856C247.53 18.6115 248.785 18.178 249.623 17.311C250.476 16.4273 250.903 15.2018 250.903 13.6345C250.903 12.0673 250.476 10.8418 249.623 9.95813C248.769 9.05778 247.513 8.60761 245.856 8.60761H240.285V18.6115Z" fill="#E04092"/>
</svg>
