<svg width="261" height="50" viewBox="0 0 261 50" fill="none" xmlns="http://www.w3.org/2000/svg">
<g clip-path="url(#clip0)">
<path d="M8.83081 25.9864V38.3874H0.0195312V1.8369H14.6046C17.3994 1.8369 19.868 2.3557 22.0101 3.39331C24.1689 4.41417 25.8341 5.87853 27.0056 7.78639C28.1939 9.67751 28.7879 11.828 28.7879 14.238C28.7879 17.8027 27.5078 20.656 24.9471 22.7982C22.4034 24.9237 18.9056 25.9864 14.454 25.9864H8.83081ZM8.83081 19.1832H14.6046C16.3116 19.1832 17.6086 18.7565 18.4956 17.9031C19.3993 17.0495 19.8512 15.8446 19.8512 14.2882C19.8512 12.5811 19.3909 11.2172 18.4705 10.1963C17.55 9.17544 16.2949 8.65665 14.705 8.6399H8.83081V19.1832ZM42.0425 38.3874H33.5576V11.2256H42.0425V38.3874ZM33.0556 4.22172C33.0556 3.01675 33.4907 2.02935 34.3609 1.25952C35.2312 0.489681 36.3609 0.104763 37.7498 0.104763C39.139 0.104763 40.2687 0.489681 41.1389 1.25952C42.0091 2.02935 42.4442 3.01675 42.4442 4.22172C42.4442 5.42667 42.0091 6.41407 41.1389 7.18391C40.2687 7.95375 39.139 8.33867 37.7498 8.33867C36.3609 8.33867 35.2312 7.95375 34.3609 7.18391C33.4907 6.41407 33.0556 5.42667 33.0556 4.22172ZM58.7614 32.3626C59.9496 32.3626 60.87 32.0446 61.5228 31.4086C62.1755 30.756 62.4934 29.8522 62.4766 28.6975H70.4093C70.4093 31.6765 69.3382 34.1199 67.1961 36.0276C65.0707 37.9355 62.3262 38.8895 58.9623 38.8895C55.0127 38.8895 51.8999 37.651 49.6237 35.1742C47.3477 32.6973 46.2098 29.2664 46.2098 24.8817V24.5304C46.2098 21.7857 46.7117 19.3675 47.716 17.2755C48.7369 15.1668 50.2012 13.5518 52.1089 12.4305C54.0168 11.2925 56.2762 10.7235 58.8869 10.7235C62.4182 10.7235 65.2213 11.7025 67.2965 13.6606C69.3718 15.6186 70.4093 18.2712 70.4093 21.6183H62.4766C62.4766 20.2125 62.1335 19.133 61.4475 18.38C60.7614 17.6268 59.8409 17.2503 58.686 17.2503C56.4937 17.2503 55.2135 18.6477 54.8452 21.4426C54.7282 22.3296 54.6696 23.5514 54.6696 25.1078C54.6696 27.8357 54.9959 29.7268 55.6486 30.781C56.3012 31.8355 57.3389 32.3626 58.7614 32.3626ZM104.926 38.3874H96.1653V23.1246H83.187V38.3874H74.3757V1.8369H83.187V16.3466H96.1653V1.8369H104.926V38.3874ZM125.436 38.3874C125.135 37.8351 124.867 37.0234 124.633 35.9524C123.076 37.9105 120.901 38.8895 118.106 38.8895C115.545 38.8895 113.37 38.1197 111.579 36.5799C109.788 35.0235 108.893 33.0738 108.893 30.7308C108.893 27.7854 109.981 25.5595 112.156 24.0533C114.332 22.5471 117.495 21.7941 121.645 21.7941H124.256V20.3631C124.256 17.8695 123.177 16.6228 121.018 16.6228C119.009 16.6228 118.005 17.6102 118.005 19.5849H109.546C109.546 16.9575 110.658 14.8237 112.884 13.1836C115.127 11.5435 117.98 10.7235 121.444 10.7235C124.909 10.7235 127.645 11.5686 129.653 13.2589C131.662 14.9492 132.691 17.2671 132.741 20.2125V32.237C132.774 34.7307 133.159 36.6385 133.896 37.9607V38.3874H125.436ZM120.139 32.8646C121.193 32.8646 122.064 32.6387 122.75 32.1868C123.453 31.7351 123.955 31.2245 124.256 30.6556V26.3127H121.796C118.85 26.3127 117.378 27.6348 117.378 30.2791C117.378 31.0489 117.637 31.6765 118.156 32.1618C118.675 32.6303 119.336 32.8646 120.139 32.8646ZM145.217 11.2256L145.493 14.4137C147.368 11.9536 149.954 10.7235 153.25 10.7235C156.079 10.7235 158.187 11.5686 159.577 13.2589C160.982 14.9492 161.71 17.493 161.76 20.8903V38.3874H153.275V21.2418C153.275 19.8694 152.999 18.8653 152.447 18.2294C151.895 17.5766 150.891 17.2503 149.435 17.2503C147.778 17.2503 146.548 17.9031 145.745 19.2084V38.3874H137.285V11.2256H145.217ZM165.476 24.6056C165.476 21.8609 165.928 19.4343 166.831 17.3257C167.735 15.217 169.032 13.5936 170.722 12.4556C172.413 11.3009 174.378 10.7235 176.622 10.7235C179.449 10.7235 181.66 11.6774 183.249 13.5853L183.55 11.2256H191.231V37.3581C191.231 39.7513 190.671 41.8265 189.55 43.5837C188.445 45.3578 186.839 46.7133 184.731 47.6506C182.621 48.6044 180.178 49.0814 177.4 49.0814C175.408 49.0814 173.475 48.7049 171.6 47.9519C169.743 47.1987 168.321 46.2196 167.334 45.0147L170.873 40.0442C172.447 41.9019 174.522 42.8307 177.098 42.8307C180.848 42.8307 182.722 40.9061 182.722 37.0569V36.2034C181.098 37.9941 179.048 38.8895 176.572 38.8895C173.258 38.8895 170.58 37.626 168.538 35.0989C166.497 32.5551 165.476 29.1578 165.476 24.9069V24.6056ZM173.96 25.1328C173.96 27.3587 174.378 29.1242 175.216 30.4296C176.053 31.7183 177.225 32.3626 178.731 32.3626C180.555 32.3626 181.884 31.7517 182.722 30.53V19.108C181.902 17.8695 180.589 17.2503 178.781 17.2503C177.274 17.2503 176.094 17.9281 175.24 19.2837C174.387 20.6226 173.96 22.5723 173.96 25.1328Z" fill="white"/>
<path d="M217.189 31.5593H205.114L203.006 38.3874H193.591L206.997 1.83691H215.281L228.787 38.3874H219.322L217.189 31.5593ZM207.223 24.7563H215.079L211.139 12.0791L207.223 24.7563ZM245.054 25.4843H240.285V38.3874H231.473V1.83691H245.856C250.192 1.83691 253.58 2.7992 256.023 4.7238C258.467 6.64838 259.689 9.36792 259.689 12.8824C259.689 15.4262 259.17 17.5348 258.133 19.2084C257.112 20.8821 255.504 22.2376 253.312 23.2751L260.944 38.0109V38.3874H251.504L245.054 25.4843ZM240.285 18.6813H245.856C247.53 18.6813 248.785 18.2462 249.623 17.376C250.476 16.4889 250.903 15.2588 250.903 13.6857C250.903 12.1125 250.476 10.8825 249.623 9.9955C248.769 9.09177 247.513 8.63991 245.856 8.63991H240.285V18.6813Z" fill="#E04092"/>
</g>
<defs>
<clipPath id="clip0">
<rect width="261" height="49.1838" fill="white"/>
</clipPath>
</defs>
</svg>
